<?xml version="1.0" encoding="UTF-8" standalone="no"?>
<!DOCTYPE svg PUBLIC "-//W3C//DTD SVG 1.1//EN" "http://www.w3.org/Graphics/SVG/1.1/DTD/svg11.dtd">
<svg width="100%" height="100%" viewBox="0 0 208 212" version="1.1" xmlns="http://www.w3.org/2000/svg" xmlns:xlink="http://www.w3.org/1999/xlink" xml:space="preserve" xmlns:serif="http://www.serif.com/" style="fill-rule:evenodd;clip-rule:evenodd;stroke-linejoin:round;stroke-miterlimit:2;">
    <g transform="matrix(1.69773,0,0,0.87604,-1439.94,-553.619)">
        <path d="M856.368,635.986C856.368,633.79 855.448,632.008 854.315,632.008L850.209,632.008C849.076,632.008 848.156,633.79 848.156,635.986L848.156,827.067C848.156,829.263 849.076,831.046 850.209,831.046L854.315,831.046C855.448,831.046 856.368,829.263 856.368,827.067L856.368,635.986Z"/>
    </g>
    <g transform="matrix(1.04393e-16,-1.70487,0.879086,5.38285e-17,-523.202,1657.76)">
        <path d="M856.368,635.989C856.368,633.792 855.448,632.008 854.315,632.008L850.209,632.008C849.076,632.008 848.156,633.792 848.156,635.989L848.156,827.064C848.156,829.262 849.076,831.046 850.209,831.046L854.315,831.046C855.448,831.046 856.368,829.262 856.368,827.064L856.368,635.989Z"/>
    </g>
    <g transform="matrix(1,0,0,1,-918.481,-574.676)">
        <text x="971.8px" y="655.389px" style="font-family:'Roboto-Bold', 'Roboto';font-weight:700;font-size:150px;">cq</text>
    </g>
    <g transform="matrix(0.969857,1.39352,-0.47719,0.332113,-403.777,-1279.43)">
        <path d="M856.368,638.003C856.368,634.694 855.448,632.008 854.315,632.008L850.209,632.008C849.076,632.008 848.156,634.694 848.156,638.003L848.156,825.051C848.156,828.359 849.076,831.046 850.209,831.046L854.315,831.046C855.448,831.046 856.368,828.359 856.368,825.051L856.368,638.003Z"/>
    </g>
</svg>
