<?xml version="1.0" encoding="UTF-8" standalone="no"?><!DOCTYPE svg PUBLIC "-//W3C//DTD SVG 1.1//EN" "http://www.w3.org/Graphics/SVG/1.1/DTD/svg11.dtd"><svg width="100%" height="100%" viewBox="0 0 96 96" version="1.1" xmlns="http://www.w3.org/2000/svg" xmlns:xlink="http://www.w3.org/1999/xlink" xml:space="preserve" xmlns:serif="http://www.serif.com/" style="fill-rule:evenodd;clip-rule:evenodd;stroke-linejoin:round;stroke-miterlimit:2;"><path d="M11.697,12.035c-0,-0.725 -0.589,-1.314 -1.315,-1.314l-2.629,-0c-0.726,-0 -1.315,0.589 -1.315,1.314l0,61.273c0,0.725 0.589,1.314 1.315,1.314l2.629,0c0.726,0 1.315,-0.589 1.315,-1.314l-0,-61.273Z"/><path d="M86.969,89.494c0.725,0 1.314,-0.589 1.314,-1.314l-0,-2.627c-0,-0.725 -0.589,-1.314 -1.314,-1.314l-62.862,0.005c-0.725,-0 -1.313,0.588 -1.313,1.314l-0,2.627c-0,0.725 0.589,1.314 1.314,1.314l62.861,-0.005Z"/><path d="M45.031,55.744c0.511,-0.51 0.511,-1.339 0.001,-1.85l-1.849,-1.852c-0.51,-0.511 -1.339,-0.511 -1.85,-0.001l-23.392,23.352c-0.511,0.511 -0.512,1.34 -0.001,1.851l1.848,1.851c0.51,0.511 1.339,0.512 1.85,0.002l23.393,-23.353Z"/><text x="21.352px" y="36.376px" style="font-family:'Futura-Bold', 'Futura', sans-serif;font-weight:700;font-size:30px;">OCP</text></svg>